<svg width="23" height="23" viewBox="0 0 23 23" fill="none" xmlns="http://www.w3.org/2000/svg">
<path d="M18.1394 22.9548H1.68505C0.755911 22.9548 0 22.2001 0 21.2724V5.76927C0 4.84161 0.755911 4.08691 1.68505 4.08691H13.137V5.01179H1.68505C1.26664 5.01179 0.926362 5.35153 0.926362 5.76927V21.2724C0.926362 21.6901 1.26664 22.0299 1.68505 22.0299H18.1394C18.5578 22.0299 18.8981 21.6901 18.8981 21.2724V10.7636H19.8244V21.2724C19.8241 22.2001 19.0682 22.9548 18.1394 22.9548Z" fill="#CFCFCF"/>
<path d="M16.7757 20.2447H3.04884C2.87715 20.2447 2.71936 20.1498 2.63908 19.9981C2.55879 19.8464 2.56929 19.663 2.66625 19.5212L5.21683 15.7958C5.3033 15.6697 5.44626 15.5941 5.59911 15.5941C5.75196 15.5941 5.89524 15.6697 5.98139 15.7958L7.10383 17.4353L11.0344 11.6945C11.1208 11.5685 11.2638 11.4929 11.4167 11.4929C11.5695 11.4929 11.7128 11.5685 11.7989 11.6945L17.1576 19.5212C17.2546 19.6627 17.2651 19.8464 17.1848 19.9981C17.1051 20.1498 16.9474 20.2447 16.7757 20.2447ZM3.92672 19.3199H15.8981L11.4173 12.7751L7.48673 18.5155C7.40027 18.6416 7.2573 18.7172 7.10445 18.7172C6.9516 18.7172 6.80832 18.6416 6.72217 18.5155L5.59973 16.876L3.92672 19.3199Z" fill="#CFCFCF"/>
<path d="M5.2682 11.2762C4.22296 11.2762 3.37256 10.4272 3.37256 9.38358C3.37256 8.34001 4.22296 7.49097 5.2682 7.49097C6.31345 7.49097 7.16385 8.34001 7.16385 9.38358C7.16385 10.4272 6.31345 11.2762 5.2682 11.2762ZM5.2682 8.41585C4.73369 8.41585 4.29892 8.84992 4.29892 9.38358C4.29892 9.91723 4.73369 10.3513 5.2682 10.3513C5.80271 10.3513 6.23749 9.91723 6.23749 9.38358C6.23749 8.84992 5.80271 8.41585 5.2682 8.41585Z" fill="#CFCFCF"/>
<path d="M19.8238 0.916016H18.8975V8.18279H19.8238V0.916016Z" fill="#CFCFCF"/>
<path d="M23.0001 4.08716H15.7217V5.01204H23.0001V4.08716Z" fill="#CFCFCF"/>
</svg>
