<svg width="20" height="20" viewBox="0 0 23 23" fill="none" xmlns="http://www.w3.org/2000/svg">
<path d="M0.421762 19.6218C-0.140587 20.1842 -0.140587 21.0958 0.421762 21.6582C0.98411 22.2205 1.89588 22.2205 2.45823 21.6582L0.421762 19.6218ZM12.0582 12.0582C12.6205 11.4958 12.6205 10.5842 12.0582 10.0218C11.4958 9.45945 10.5842 9.45945 10.0218 10.0218L12.0582 12.0582ZM10.0218 10.0218C9.45945 10.5842 9.45945 11.4958 10.0218 12.0582C10.5842 12.6205 11.4958 12.6205 12.0582 12.0582L10.0218 10.0218ZM21.6582 2.45823C22.2205 1.89588 22.2205 0.98411 21.6582 0.421762C21.0958 -0.140587 20.1842 -0.140587 19.6218 0.421762L21.6582 2.45823ZM12.0582 10.0218C11.4958 9.45945 10.5842 9.45945 10.0218 10.0218C9.45945 10.5842 9.45945 11.4958 10.0218 12.0582L12.0582 10.0218ZM19.6218 21.6582C20.1842 22.2205 21.0958 22.2205 21.6582 21.6582C22.2205 21.0958 22.2205 20.1842 21.6582 19.6218L19.6218 21.6582ZM10.0218 12.0582C10.5842 12.6205 11.4958 12.6205 12.0582 12.0582C12.6205 11.4958 12.6205 10.5842 12.0582 10.0218L10.0218 12.0582ZM2.45823 0.421762C1.89588 -0.140587 0.98411 -0.140587 0.421762 0.421762C-0.140587 0.98411 -0.140587 1.89588 0.421762 2.45823L2.45823 0.421762ZM2.45823 21.6582L12.0582 12.0582L10.0218 10.0218L0.421762 19.6218L2.45823 21.6582ZM12.0582 12.0582L21.6582 2.45823L19.6218 0.421762L10.0218 10.0218L12.0582 12.0582ZM10.0218 12.0582L19.6218 21.6582L21.6582 19.6218L12.0582 10.0218L10.0218 12.0582ZM12.0582 10.0218L2.45823 0.421762L0.421762 2.45823L10.0218 12.0582L12.0582 10.0218Z" fill="white"/>
</svg>
